HIERARCHY
ROOT Joint1
{
	OFFSET 0.000000 0.000000 0.000000
	CHANNELS 6 Xposition Yposition Zposition Xrotation Yrotation Zrotation
	JOINT Joint2
	{
		OFFSET -0.000000 0.000000 1.456275
		CHANNELS 6 Xposition Yposition Zposition Xrotation Yrotation Zrotation
		JOINT Joint3
		{
			OFFSET -0.000000 0.000002 1.471446
			CHANNELS 6 Xposition Yposition Zposition Xrotation Yrotation Zrotation
			JOINT Joint4
			{
				OFFSET 0.625745 0.000000 0.917755
				CHANNELS 6 Xposition Yposition Zposition Xrotation Yrotation Zrotation
				JOINT Joint5
				{
					OFFSET -0.629534 0.000001 0.940221
					CHANNELS 6 Xposition Yposition Zposition Xrotation Yrotation Zrotation
					JOINT Joint6
					{
						OFFSET -0.000001 0.113772 1.960660
						CHANNELS 6 Xposition Yposition Zposition Xrotation Yrotation Zrotation
						JOINT Joint7
						{
							OFFSET -0.669733 -0.113771 0.388340
							CHANNELS 6 Xposition Yposition Zposition Xrotation Yrotation Zrotation
							End Site
							{
								OFFSET 0.005509 0.005509 0.438980
							}
						}
					}
				}
			}
		}
	}
}
MOTION
Frames: 19
Frame Time: 0.041667
0.000000 0.000000 0.000000 -0.000000 1.019410 87.123584 -0.000000 0.000000 1.456275 0.000000 -50.056564 -0.000000 -0.000000 0.000002 1.471445 -0.000002 -1.133463 -56.263492 0.625745 0.000000 0.917755 0.000008 163.469294 -0.000002 -0.629534 0.000001 0.940221 -0.000002 1.709738 60.292627 -0.000001 0.113772 1.960660 -88.303896 62.698405 -0.000005 -0.669733 -0.113771 0.388340 -1.126228 3.475471 159.399936 
0.000000 0.000000 0.000000 -0.000000 1.019410 87.081046 -0.000000 0.000000 1.456275 0.000000 -50.054089 -0.000000 -0.000000 0.000002 1.471446 -0.000002 -1.133464 -56.236038 0.625744 0.000000 0.917755 0.000006 163.455402 -0.000001 -0.629534 0.000001 0.940221 0.000001 1.709736 60.263196 -0.000001 0.113773 1.960660 -88.303889 62.711723 -0.000001 -0.669733 -0.113771 0.388340 -1.126036 3.475559 159.388010 
0.000000 0.000000 0.000000 -0.000000 1.019410 87.006337 -0.000000 0.000000 1.456275 -0.000000 -50.049734 -0.000000 -0.000000 0.000002 1.471446 -0.000002 -1.133466 -56.187824 0.625744 0.000000 0.917755 0.000003 163.431004 -0.000001 -0.629534 0.000001 0.940221 0.000001 1.709737 60.211492 -0.000001 0.113772 1.960661 -88.303896 62.735117 0.000001 -0.669733 -0.113771 0.388340 -1.125692 3.475717 159.367055 
0.000000 0.000000 0.000000 -0.000000 1.019410 86.896344 -0.000000 0.000000 1.456275 -0.000001 -50.043317 -0.000000 -0.000000 0.000002 1.471446 -0.000003 -1.133464 -56.116841 0.625744 0.000000 0.917755 0.000004 163.395091 -0.000003 -0.629534 0.000001 0.940221 -0.000004 1.709739 60.135369 -0.000001 0.113773 1.960660 -88.303889 62.769548 -0.000001 -0.669733 -0.113771 0.388340 -1.125193 3.475940 159.336210 
0.000000 0.000000 0.000000 -0.000000 1.019410 86.747951 -0.000000 0.000000 1.456275 -0.000000 -50.034674 -0.000000 -0.000001 0.000002 1.471446 -0.000002 -1.133467 -56.021082 0.625744 0.000000 0.917755 0.000002 163.346638 -0.000002 -0.629534 0.000001 0.940221 -0.000002 1.709737 60.032677 -0.000001 0.113772 1.960660 -88.303896 62.816007 -0.000003 -0.669733 -0.113771 0.388340 -1.124518 3.476240 159.294601 
0.000000 0.000000 0.000000 -0.000000 1.019410 86.558038 -0.000000 -0.000000 1.456275 -0.000000 -50.023605 0.000000 -0.000000 0.000002 1.471446 -0.000002 -1.133464 -55.898535 0.625744 0.000000 0.917755 0.000007 163.284620 -0.000000 -0.629534 0.000001 0.940221 0.000001 1.709737 59.901244 -0.000001 0.113772 1.960660 -88.303896 62.875457 -0.000003 -0.669733 -0.113771 0.388340 -1.123662 3.476628 159.241353 
0.000000 0.000000 0.000000 -0.000000 1.019410 86.323503 -0.000000 0.000000 1.456275 -0.000000 -50.009935 0.000000 -0.000000 0.000002 1.471446 -0.000002 -1.133461 -55.747178 0.625745 0.000000 0.917755 0.000005 163.208040 0.000001 -0.629534 0.000001 0.940221 0.000001 1.709739 59.738931 -0.000001 0.113772 1.960660 -88.303882 62.948888 -0.000003 -0.669733 -0.113771 0.388340 -1.122596 3.477107 159.175578 
0.000000 0.000000 0.000000 -0.000000 1.019410 86.041225 -0.000000 0.000000 1.456275 -0.000000 -49.993491 -0.000000 -0.000000 0.000002 1.471446 -0.000003 -1.133463 -55.565016 0.625745 0.000000 0.917755 0.000006 163.115859 -0.000002 -0.629534 0.000001 0.940221 -0.000004 1.709735 59.543574 -0.000001 0.113772 1.960660 -88.303903 63.037257 -0.000007 -0.669733 -0.113771 0.388340 -1.121311 3.477682 159.096402 
0.000000 0.000000 0.000000 -0.000000 1.019410 85.708082 -0.000000 0.000000 1.456275 0.000000 -49.974076 -0.000001 -0.000000 0.000002 1.471446 -0.000002 -1.133461 -55.350029 0.625745 0.000001 0.917755 -0.000000 163.007082 0.000002 -0.629534 0.000001 0.940221 -0.000001 1.709736 59.313021 -0.000001 0.113772 1.960660 -88.303896 63.141547 -0.000003 -0.669733 -0.113771 0.388340 -1.119796 3.478353 159.002979 
0.000000 0.000000 0.000000 -0.000000 1.019410 85.320961 -0.000000 0.000000 1.456275 0.000001 -49.951509 -0.000001 -0.000000 0.000002 1.471446 -0.000002 -1.133468 -55.100222 0.625745 0.000001 0.917755 0.000003 162.880669 0.000001 -0.629534 0.000001 0.940221 -0.000002 1.709737 59.045100 -0.000001 0.113772 1.960660 -88.303889 63.262749 -0.000003 -0.669733 -0.113771 0.388340 -1.118032 3.479136 158.894406 
0.000000 0.000000 0.000000 -0.000000 1.019410 84.876753 -0.000000 -0.000000 1.456275 0.000000 -49.925630 0.000000 -0.000000 0.000002 1.471446 -0.000002 -1.133470 -54.813566 0.625745 0.000000 0.917755 0.000001 162.735623 -0.000000 -0.629534 0.000001 0.940221 -0.000003 1.709736 58.737694 -0.000001 0.113772 1.960660 -88.303889 63.401812 0.000006 -0.669733 -0.113771 0.388340 -1.116011 3.480029 158.769851 
0.000000 0.000000 0.000000 -0.000000 1.019410 84.372343 -0.000000 -0.000000 1.456275 -0.000000 -49.896239 -0.000000 -0.000000 0.000002 1.471446 -0.000002 -1.133464 -54.488053 0.625745 0.000000 0.917755 0.000006 162.570933 0.000001 -0.629534 0.000001 0.940221 -0.000004 1.709737 58.388610 -0.000001 0.113772 1.960660 -88.303889 63.559719 -0.000001 -0.669733 -0.113771 0.388340 -1.113712 3.481042 158.628398 
0.000000 0.000000 0.000000 -0.000000 1.019410 83.804611 -0.000000 0.000000 1.456275 0.000000 -49.863147 0.000001 -0.000000 0.000002 1.471446 -0.000002 -1.133465 -54.121678 0.625744 0.000001 0.917755 0.000002 162.385548 -0.000001 -0.629534 0.000001 0.940221 -0.000001 1.709739 57.995696 -0.000001 0.113772 1.960661 -88.303889 63.737454 -0.000001 -0.669733 -0.113771 0.388341 -1.111115 3.482166 158.469172 
0.000000 0.000000 0.000000 -0.000000 1.019410 83.170435 -0.000000 0.000000 1.456275 -0.000000 -49.826192 0.000000 -0.000000 0.000002 1.471446 -0.000002 -1.133461 -53.712433 0.625745 0.000001 0.917755 0.000001 162.178471 0.000001 -0.629534 0.000001 0.940221 -0.000001 1.709736 57.556802 -0.000001 0.113772 1.960660 -88.303889 63.935994 -0.000009 -0.669733 -0.113771 0.388340 -1.108217 3.483417 158.291342 
0.000000 0.000000 0.000000 -0.000000 1.019410 82.466714 -0.000000 0.000000 1.456275 0.000001 -49.785187 0.000001 -0.000000 0.000002 1.471446 -0.000001 -1.133465 -53.258304 0.625744 0.000000 0.917755 0.000003 161.948676 -0.000000 -0.629534 0.000000 0.940221 -0.000000 1.709738 57.069789 -0.000001 0.113773 1.960660 -88.303896 64.156302 0.000002 -0.669733 -0.113771 0.388340 -1.104992 3.484795 158.093990 
0.000000 0.000000 0.000000 -0.000000 1.019410 81.690319 -0.000000 0.000000 1.456275 -0.000000 -49.739937 -0.000000 -0.000000 0.000002 1.471446 -0.000003 -1.133465 -52.757279 0.625745 0.000000 0.917755 -0.000000 161.695153 0.000001 -0.629533 0.000001 0.940220 0.000001 1.709738 56.532475 -0.000001 0.113772 1.960660 -88.303896 64.399361 0.000004 -0.669733 -0.113771 0.388340 -1.101432 3.486298 157.876257 
0.000000 0.000000 0.000000 -0.000000 1.019410 80.842365 -0.000000 0.000000 1.456275 0.000001 -49.690524 0.000001 -0.000000 0.000002 1.471446 -0.000002 -1.133462 -52.210086 0.625745 0.000000 0.917755 0.000001 161.418270 0.000002 -0.629534 0.000001 0.940221 -0.000004 1.709738 55.945636 -0.000001 0.113773 1.960660 -88.303896 64.664823 -0.000001 -0.669733 -0.113771 0.388341 -1.097539 3.487932 157.638457 
0.000000 0.000000 0.000000 -0.000000 1.019410 79.940855 -0.000000 -0.000000 1.456275 -0.000002 -49.637990 -0.000001 -0.000001 0.000002 1.471446 -0.000001 -1.133469 -51.628317 0.625745 0.000000 0.917754 0.000007 161.123889 -0.000001 -0.629534 0.000001 0.940221 -0.000000 1.709738 55.321732 -0.000001 0.113772 1.960661 -88.303889 64.947053 -0.000000 -0.669732 -0.113771 0.388340 -1.093388 3.489649 157.385645 
0.000000 0.000000 0.000000 -0.000000 1.019410 79.007995 -0.000000 0.000000 1.456275 -0.000001 -49.583622 -0.000000 -0.000000 0.000002 1.471445 -0.000001 -1.133464 -51.026318 0.625744 0.000000 0.917755 0.000004 160.819277 0.000001 -0.629534 0.000001 0.940221 -0.000004 1.709739 54.676142 -0.000001 0.113772 1.960660 -88.303889 65.239091 0.000006 -0.669733 -0.113771 0.388340 -1.089090 3.491405 157.124021 
